<?xml version="1.0" encoding="utf-8"?>
<svg version="1.1" id="layer" x="0px" y="0px" viewBox="-153 -46 629.924 196.779" style="enable-background:new -153 -46 652 652;" xmlns="http://www.w3.org/2000/svg">
  <style type="text/css">
	.st0{fill:#2AA9E0;}
</style>
  <path class="st0" d="M -112.664 103.327 L -98.464 111.527 L -98.464 117.027 L -112.664 108.827 L -112.664 103.327 Z M -112.664 81.527 L -112.664 87.027 L -98.464 95.227 L -98.464 89.727 L -112.664 81.527 Z M -141.064 86.927 L -141.064 92.427 L -126.864 100.627 L -126.864 95.127 L -141.064 86.927 Z M -112.664 92.427 L -112.664 97.927 L -98.464 106.127 L -98.464 100.627 L -112.664 92.427 Z M -112.664 65.127 L -98.464 73.327 L -98.464 67.827 L -112.664 59.627 L -112.664 65.127 Z M -112.664 48.727 L -112.664 54.227 L -98.464 62.427 L -98.464 56.927 L -112.664 48.727 Z M -112.664 76.027 L -98.464 84.227 L -98.464 78.727 L -112.664 70.527 L -112.664 76.027 Z M -70.064 100.627 L -70.064 95.127 L -84.264 86.927 L -84.264 92.427 L -70.064 100.627 Z M -70.064 84.227 L -84.264 76.027 L -84.264 81.527 L -70.064 89.727 L -70.064 84.227 Z M -84.264 103.327 L -70.064 111.527 L -70.064 106.027 L -84.264 97.827 L -84.264 103.327 Z M -70.064 51.427 L -141.064 10.427 L -141.064 15.927 L -70.064 56.927 L -70.064 51.427 Z M -84.264 59.627 L -70.064 67.827 L -70.064 62.327 L -141.064 21.327 L -141.064 26.827 L -126.864 35.027 L -112.664 43.227 L -98.464 51.427 L -84.264 59.627 Z M -70.064 73.327 L -84.264 65.127 L -84.264 70.627 L -70.064 78.827 L -70.064 73.327 Z M -141.064 48.727 L -126.864 56.927 L -126.864 51.427 L -141.064 43.227 L -141.064 48.727 Z M -141.064 59.627 L -126.864 67.827 L -126.864 62.327 L -141.064 54.127 L -141.064 59.627 Z M -141.064 37.727 L -126.864 45.927 L -126.864 40.427 L -141.064 32.227 L -141.064 37.727 Z M -141.064 76.027 L -141.064 81.527 L -126.864 89.727 L -126.864 84.227 L -141.064 76.027 Z M -141.064 70.527 L -126.864 78.727 L -126.864 73.227 L -141.064 65.027 L -141.064 70.527 Z M 0.936 26.827 L 0.936 10.427 L -41.664 -14.173 L -55.864 -5.973 L -13.264 18.627 L -55.864 43.227 L -55.864 92.427 L -13.264 67.827 L -13.264 84.227 L -70.064 117.027 L -84.264 108.827 L -84.264 114.327 L -70.064 122.527 L -70.064 128.027 L -84.264 119.827 L -84.264 125.327 L -70.064 133.527 L 0.936 92.527 L 0.936 43.327 L -41.664 67.927 L -41.664 51.527 L 0.936 26.827 Z M -55.864 -22.373 L -70.064 -30.573 L -84.264 -22.373 L -70.064 -14.173 L -55.864 -22.373 Z M 43.836 19.327 L 47.036 19.327 L 47.036 4.727 C 47.036 -0.773 49.336 -4.973 54.836 -4.973 C 58.936 -4.973 60.336 -1.973 60.336 1.527 L 60.336 19.327 L 63.536 19.327 L 63.536 4.527 C 63.536 -0.373 65.136 -4.973 70.636 -4.973 C 75.236 -4.973 76.836 -2.673 76.836 1.727 L 76.836 19.427 L 80.036 19.427 L 80.036 1.627 C 80.036 -4.573 77.136 -7.573 71.336 -7.573 C 67.836 -7.573 64.536 -5.873 63.036 -2.473 C 62.036 -5.973 58.936 -7.573 55.536 -7.573 C 51.336 -7.573 48.636 -5.573 46.936 -2.373 L 46.736 -2.373 L 46.736 -6.773 L 43.836 -6.773 L 43.836 19.327 Z M 107.436 -6.873 L 104.236 -6.873 L 104.236 6.927 C 104.236 12.227 101.836 17.427 96.336 17.427 C 91.236 17.427 89.436 14.927 89.336 10.227 L 89.336 -6.873 L 86.136 -6.873 L 86.136 10.127 C 86.136 16.227 88.736 20.127 95.336 20.127 C 99.236 20.127 102.736 18.127 104.436 14.627 L 104.536 14.627 L 104.536 19.327 L 107.536 19.327 L 107.536 -6.873 L 107.436 -6.873 Z M 132.436 0.727 C 132.236 -4.973 128.036 -7.673 122.836 -7.673 C 118.236 -7.673 112.936 -5.673 112.936 -0.273 C 112.936 4.227 116.136 5.627 120.236 6.727 L 124.336 7.627 C 127.236 8.327 130.036 9.327 130.036 12.427 C 130.036 16.127 125.836 17.427 122.836 17.427 C 118.536 17.427 115.336 15.227 115.136 10.827 L 111.936 10.827 C 112.436 17.227 116.636 20.127 122.736 20.127 C 127.636 20.127 133.236 17.927 133.236 12.227 C 133.236 7.627 129.436 5.527 125.736 4.927 L 121.436 3.927 C 119.236 3.327 116.036 2.327 116.036 -0.473 C 116.036 -3.873 119.436 -4.973 122.236 -4.973 C 125.936 -4.973 128.936 -3.173 129.136 0.727 L 132.436 0.727 Z M 139.836 4.427 C 140.336 -0.373 143.236 -4.973 148.436 -4.973 C 153.636 -4.973 156.636 -0.473 156.736 4.427 L 139.836 4.427 Z M 160.036 7.127 C 160.336 -0.273 156.936 -7.573 148.536 -7.573 C 140.236 -7.573 136.736 -0.573 136.736 6.327 C 136.736 13.827 140.236 20.227 148.536 20.227 C 155.136 20.227 158.636 16.727 159.936 10.827 L 156.736 10.827 C 155.736 14.827 153.136 17.527 148.536 17.527 C 142.336 17.527 139.936 11.927 139.936 7.227 L 160.036 7.227 L 160.036 7.127 Z M 185.636 -6.873 L 182.436 -6.873 L 182.436 6.927 C 182.436 12.227 180.036 17.427 174.536 17.427 C 169.436 17.427 167.636 14.927 167.536 10.227 L 167.536 -6.873 L 164.336 -6.873 L 164.336 10.127 C 164.336 16.227 166.936 20.127 173.536 20.127 C 177.436 20.127 180.936 18.127 182.636 14.627 L 182.736 14.627 L 182.736 19.327 L 185.736 19.327 L 185.736 -6.873 L 185.636 -6.873 Z M 191.636 19.327 L 194.836 19.327 L 194.836 4.727 C 194.936 -0.773 197.136 -4.973 202.636 -4.973 C 206.736 -4.973 208.136 -1.973 208.136 1.527 L 208.136 19.327 L 211.336 19.327 L 211.336 4.527 C 211.336 -0.373 212.936 -4.973 218.436 -4.973 C 223.036 -4.973 224.636 -2.673 224.636 1.727 L 224.636 19.427 L 227.836 19.427 L 227.836 1.627 C 227.836 -4.573 224.936 -7.573 219.136 -7.573 C 215.636 -7.573 212.336 -5.873 210.836 -2.473 C 209.836 -5.973 206.736 -7.573 203.336 -7.573 C 199.136 -7.573 196.436 -5.573 194.736 -2.373 L 194.536 -2.373 L 194.536 -6.773 L 191.636 -6.773 L 191.636 19.327 Z M 246.036 6.227 C 246.036 0.627 249.136 -4.973 255.236 -4.973 C 261.436 -4.973 264.436 0.627 264.436 6.227 C 264.436 11.827 261.336 17.427 255.236 17.427 C 249.036 17.427 246.036 11.827 246.036 6.227 M 267.636 6.227 C 267.636 -1.273 263.236 -7.673 255.236 -7.673 C 247.236 -7.673 242.836 -1.273 242.836 6.227 C 242.836 13.727 247.236 20.127 255.236 20.127 C 263.236 20.127 267.636 13.727 267.636 6.227 M 282.536 -6.873 L 277.336 -6.873 L 277.336 -9.173 C 277.336 -12.073 277.236 -14.273 280.836 -14.273 C 281.636 -14.273 282.336 -14.173 283.136 -13.973 L 283.136 -16.773 C 282.136 -16.873 281.336 -16.973 280.436 -16.973 C 275.336 -16.973 274.036 -13.773 274.036 -9.273 L 274.036 -6.873 L 269.536 -6.873 L 269.536 -4.173 L 274.036 -4.173 L 274.036 19.427 L 277.236 19.427 L 277.236 -4.173 L 282.436 -4.173 L 282.436 -6.873 L 282.536 -6.873 Z M 42.236 56.027 C 42.536 63.027 48.536 65.327 54.636 65.327 C 60.636 65.327 66.636 63.127 66.636 56.127 C 66.636 51.227 62.536 49.727 58.336 48.727 C 54.236 47.727 50.136 47.427 50.136 44.827 C 50.136 42.727 52.536 42.427 54.136 42.427 C 56.736 42.427 58.836 43.227 59.036 46.027 L 65.936 46.027 C 65.336 39.527 60.136 37.627 54.336 37.627 C 48.736 37.627 42.936 39.327 42.936 46.027 C 42.936 50.627 47.136 52.127 51.236 53.027 C 56.436 54.127 59.436 54.927 59.436 57.127 C 59.436 59.627 56.836 60.527 54.736 60.527 C 51.836 60.527 49.236 59.227 49.236 56.127 L 42.236 56.127 L 42.236 56.027 Z M 95.836 47.527 C 95.336 40.827 89.636 37.527 83.436 37.527 C 74.936 37.527 70.036 43.627 70.036 51.727 C 70.036 59.627 75.336 65.227 83.336 65.227 C 90.236 65.227 95.136 61.427 96.036 54.427 L 89.036 54.427 C 88.536 57.627 86.636 59.727 83.236 59.727 C 78.736 59.727 77.236 55.227 77.236 51.427 C 77.236 47.527 78.736 42.927 83.436 42.927 C 86.436 42.927 88.336 44.527 88.736 47.427 L 95.836 47.427 L 95.836 47.527 Z M 100.236 64.527 L 107.436 64.527 L 107.436 38.227 L 100.236 38.227 L 100.236 64.527 Z M 107.436 28.227 L 100.236 28.227 L 100.236 34.227 L 107.436 34.227 L 107.436 28.227 Z M 119.136 48.627 C 119.236 46.627 120.536 43.027 125.136 43.027 C 128.636 43.027 130.236 44.927 130.936 48.627 L 119.136 48.627 Z M 138.036 53.127 C 138.536 45.027 134.236 37.527 125.236 37.527 C 117.236 37.527 111.836 43.527 111.836 51.427 C 111.836 59.527 116.936 65.227 125.236 65.227 C 131.236 65.227 135.536 62.627 137.536 56.327 L 131.136 56.327 C 130.636 57.927 128.336 59.727 125.436 59.727 C 121.436 59.727 119.136 57.627 118.936 53.027 L 138.036 53.027 L 138.036 53.127 Z M 142.336 64.527 L 149.536 64.527 L 149.536 50.727 C 149.536 45.427 151.236 43.227 155.136 43.227 C 158.536 43.227 159.736 45.327 159.736 49.727 L 159.736 64.627 L 166.936 64.627 L 166.936 48.427 C 166.936 41.927 165.036 37.627 157.336 37.627 C 154.236 37.627 151.136 39.027 149.336 42.027 L 149.136 42.027 L 149.136 38.327 L 142.236 38.327 L 142.236 64.527 L 142.336 64.527 Z M 197.436 47.527 C 196.936 40.827 191.236 37.527 185.036 37.527 C 176.536 37.527 171.636 43.627 171.636 51.727 C 171.636 59.627 176.936 65.227 184.936 65.227 C 191.836 65.227 196.636 61.427 197.636 54.427 L 190.636 54.427 C 190.136 57.627 188.236 59.727 184.836 59.727 C 180.336 59.727 178.836 55.227 178.836 51.427 C 178.836 47.527 180.336 42.927 185.036 42.927 C 188.036 42.927 189.936 44.527 190.336 47.427 L 197.436 47.427 L 197.436 47.527 Z M 207.636 48.627 C 207.736 46.627 209.036 43.027 213.636 43.027 C 217.136 43.027 218.736 44.927 219.436 48.627 L 207.636 48.627 Z M 226.636 53.127 C 227.136 45.027 222.836 37.527 213.836 37.527 C 205.836 37.527 200.436 43.527 200.436 51.427 C 200.436 59.527 205.536 65.227 213.836 65.227 C 219.836 65.227 224.136 62.627 226.136 56.327 L 219.836 56.327 C 219.336 57.927 217.036 59.727 214.136 59.727 C 210.136 59.727 207.836 57.627 207.636 53.027 L 226.636 53.027 L 226.636 53.127 Z M 247.136 38.827 L 241.736 38.827 L 241.736 48.927 L 231.636 48.927 L 231.636 54.327 L 241.736 54.327 L 241.736 64.427 L 247.136 64.427 L 247.136 54.327 L 257.236 54.327 L 257.236 48.927 L 247.136 48.927 L 247.136 38.827 Z M 262.636 64.527 L 269.836 64.527 L 269.836 38.227 L 262.636 38.227 L 262.636 64.527 Z M 269.836 28.227 L 262.636 28.227 L 262.636 34.227 L 269.836 34.227 L 269.836 28.227 Z M 275.536 64.527 L 282.736 64.527 L 282.736 50.727 C 282.736 45.427 284.436 43.227 288.336 43.227 C 291.736 43.227 292.936 45.327 292.936 49.727 L 292.936 64.627 L 300.136 64.627 L 300.136 48.427 C 300.136 41.927 298.236 37.627 290.536 37.627 C 287.436 37.627 284.336 39.027 282.536 42.027 L 282.336 42.027 L 282.336 38.327 L 275.536 38.327 L 275.536 64.527 Z M 318.136 43.027 C 322.836 43.027 324.336 47.127 324.336 51.327 C 324.336 55.627 322.936 59.827 318.136 59.827 C 313.636 59.827 311.736 55.527 311.736 51.427 C 311.836 47.027 313.436 43.027 318.136 43.027 M 324.436 64.527 L 331.336 64.527 L 331.336 28.227 L 324.136 28.227 L 324.136 41.427 L 324.036 41.427 C 322.436 38.827 319.336 37.527 316.236 37.527 C 308.536 37.527 304.636 44.127 304.636 51.127 C 304.636 58.427 308.536 65.227 316.436 65.227 C 319.836 65.227 322.736 64.027 324.436 61.127 L 324.536 61.127 L 324.536 64.527 L 324.436 64.527 Z M 361.436 38.227 L 354.236 38.227 L 354.236 52.027 C 354.236 57.327 352.536 59.527 348.636 59.527 C 345.236 59.527 344.036 57.427 344.036 53.027 L 344.036 38.127 L 336.836 38.127 L 336.836 54.327 C 336.836 60.827 338.736 65.127 346.436 65.127 C 349.536 65.127 352.636 63.727 354.436 60.727 L 354.636 60.727 L 354.636 64.427 L 361.536 64.427 L 361.536 38.227 L 361.436 38.227 Z M 365.636 56.027 C 365.936 63.027 371.936 65.327 378.036 65.327 C 384.036 65.327 390.036 63.127 390.036 56.127 C 390.036 51.227 385.936 49.727 381.636 48.727 C 377.536 47.727 373.436 47.427 373.436 44.827 C 373.436 42.727 375.836 42.427 377.436 42.427 C 380.036 42.427 382.136 43.227 382.336 46.027 L 389.236 46.027 C 388.636 39.527 383.436 37.627 377.636 37.627 C 371.936 37.627 366.236 39.327 366.236 46.027 C 366.236 50.627 370.436 52.127 374.536 53.027 C 379.736 54.127 382.736 54.927 382.736 57.127 C 382.736 59.627 380.036 60.527 378.036 60.527 C 375.236 60.527 372.536 59.227 372.536 56.127 L 365.636 56.127 L 365.636 56.027 Z M 403.436 30.327 L 396.236 30.327 L 396.236 38.227 L 391.836 38.227 L 391.836 43.027 L 396.236 43.027 L 396.236 58.627 C 396.236 63.827 400.136 64.927 404.536 64.927 C 405.936 64.927 407.536 64.827 408.736 64.627 L 408.736 59.027 C 407.936 59.227 407.236 59.227 406.536 59.227 C 404.136 59.227 403.436 58.627 403.436 56.127 L 403.436 43.127 L 408.736 43.127 L 408.736 38.327 L 403.436 38.327 L 403.436 30.327 Z M 412.136 64.527 L 419.336 64.527 L 419.336 52.627 C 419.336 48.027 421.136 44.227 426.436 44.227 C 427.336 44.227 428.336 44.327 429.036 44.527 L 429.036 37.827 C 428.536 37.727 427.936 37.627 427.436 37.627 C 423.936 37.627 420.336 39.927 419.036 43.227 L 418.936 43.227 L 418.936 38.327 L 412.036 38.327 L 412.036 64.527 L 412.136 64.527 Z M 458.936 38.227 L 451.436 38.227 L 445.636 56.227 L 445.536 56.227 L 439.536 38.227 L 431.836 38.227 L 441.136 62.927 C 441.936 65.027 441.136 67.627 438.636 67.827 C 437.236 67.827 435.736 67.627 434.436 67.527 L 434.436 73.527 C 435.936 73.627 437.436 73.727 438.836 73.727 C 443.836 73.727 446.336 72.027 447.936 67.827 L 458.936 38.227 Z M 65.536 91.727 C 64.836 85.727 60.536 82.727 54.936 82.727 C 46.936 82.727 42.536 89.127 42.536 96.627 C 42.536 104.127 46.936 110.527 54.936 110.527 C 60.736 110.527 64.936 106.627 65.736 100.327 L 62.536 100.327 C 62.136 104.727 58.836 107.827 54.936 107.827 C 48.736 107.827 45.736 102.227 45.736 96.627 C 45.736 91.027 48.836 85.427 54.936 85.427 C 59.136 85.427 61.536 87.827 62.336 91.727 L 65.536 91.727 Z M 70.136 109.727 L 73.336 109.727 L 73.336 94.427 C 73.436 89.327 76.536 85.427 81.536 85.427 C 86.736 85.427 88.236 88.827 88.236 93.327 L 88.236 109.727 L 91.436 109.727 L 91.436 92.827 C 91.436 86.527 89.236 82.727 81.836 82.727 C 78.136 82.727 74.636 84.827 73.436 88.027 L 73.336 88.027 L 73.336 73.427 L 70.136 73.427 L 70.136 109.727 Z M 97.536 83.527 L 100.736 83.527 L 100.736 109.727 L 97.536 109.727 L 97.536 83.527 Z M 97.536 73.427 L 100.736 73.427 L 100.736 78.527 L 97.536 78.527 L 97.536 73.427 Z M 128.636 91.727 C 127.936 85.727 123.636 82.727 118.036 82.727 C 110.036 82.727 105.636 89.127 105.636 96.627 C 105.636 104.127 110.036 110.527 118.036 110.527 C 123.836 110.527 128.036 106.627 128.836 100.327 L 125.636 100.327 C 125.236 104.727 121.936 107.827 118.036 107.827 C 111.836 107.827 108.836 102.227 108.836 96.627 C 108.836 91.027 111.936 85.427 118.036 85.427 C 122.236 85.427 124.636 87.827 125.436 91.727 L 128.636 91.727 Z M 150.136 99.627 C 150.236 104.727 145.836 107.827 140.936 107.827 C 137.936 107.827 135.136 105.827 135.136 102.627 C 135.136 97.527 141.936 97.527 147.336 96.527 C 148.236 96.427 149.636 96.127 150.036 95.327 L 150.136 95.327 L 150.136 99.627 Z M 136.236 91.527 C 136.336 87.227 139.236 85.427 143.236 85.427 C 147.036 85.427 150.136 86.527 150.136 90.827 C 150.136 93.727 148.636 94.127 146.036 94.427 C 139.136 95.227 131.936 95.527 131.936 102.827 C 131.936 108.127 135.936 110.527 140.736 110.527 C 145.736 110.527 148.036 108.627 150.336 105.227 L 150.436 105.227 C 150.436 107.927 150.936 109.827 154.236 109.827 C 155.136 109.827 155.636 109.827 156.336 109.627 L 156.336 106.927 C 156.036 107.027 155.636 107.127 155.336 107.127 C 154.036 107.127 153.436 106.427 153.436 105.227 L 153.436 91.327 C 153.436 84.327 148.436 82.927 143.736 82.927 C 137.736 82.927 133.436 85.527 133.136 91.727 L 136.236 91.727 L 136.236 91.527 Z M 178.736 96.327 C 178.736 101.627 175.836 106.727 170.336 106.727 C 164.436 106.727 161.736 101.627 161.736 96.327 C 161.736 90.927 164.336 85.427 170.336 85.427 C 176.336 85.427 178.736 91.227 178.736 96.327 M 181.936 83.527 L 178.736 83.527 L 178.736 88.027 L 178.636 88.027 C 177.336 85.127 174.136 82.727 170.336 82.727 C 162.736 82.727 158.536 88.727 158.536 95.927 C 158.536 103.427 162.036 109.427 170.336 109.427 C 174.136 109.427 177.236 107.227 178.636 104.027 L 178.736 104.027 L 178.736 107.627 C 178.736 114.027 176.236 117.527 170.336 117.527 C 166.736 117.527 163.336 116.127 162.636 112.327 L 159.436 112.327 C 159.936 117.927 165.036 120.227 170.336 120.227 C 178.936 120.227 181.936 115.427 182.036 107.627 L 182.036 83.527 L 181.936 83.527 Z M 189.836 96.627 C 189.836 91.027 192.936 85.427 199.036 85.427 C 205.236 85.427 208.236 91.027 208.236 96.627 C 208.236 102.227 205.236 107.827 199.036 107.827 C 192.936 107.827 189.836 102.227 189.836 96.627 M 211.536 96.627 C 211.536 89.127 207.136 82.727 199.136 82.727 C 191.136 82.727 186.736 89.127 186.736 96.627 C 186.736 104.127 191.136 110.527 199.136 110.527 C 207.136 110.527 211.536 104.127 211.536 96.627" style="paint-order: fill; fill: rgb(255, 255, 255);"/>
</svg>